<?xml version="1.0" encoding="iso-8859-1"?>
<!-- Generator: Adobe Illustrator 18.0.0, SVG Export Plug-In . SVG Version: 6.00 Build 0)  -->
<!DOCTYPE svg PUBLIC "-//W3C//DTD SVG 1.1//EN" "http://www.w3.org/Graphics/SVG/1.1/DTD/svg11.dtd">
<svg version="1.1" id="Capa_1" xmlns="http://www.w3.org/2000/svg" xmlns:xlink="http://www.w3.org/1999/xlink" x="0px" y="0px"
	 viewBox="0 0 290.035 290.035" style="enable-background:new 0 0 290.035 290.035;" xml:space="preserve">
<g>
	<path d="M267.642,88.329c-5.927,0-11.108,3.138-14.014,7.832v-5.359c0-9.105-7.382-16.487-16.487-16.487
		c-5.927,0-11.108,3.138-14.014,7.833v-3.711c0-9.105-7.382-16.487-16.487-16.487c-5.927,0-11.108,3.138-14.014,7.833V19.909
		c0-9.106-7.382-16.487-16.487-16.487c-9.105,0-16.487,7.382-16.487,16.487v136.305v8.458l-38.92-27.727
		c-7.416-5.284-17.712-3.556-22.994,3.861c-5.283,7.416-3.555,17.711,3.861,22.994c0,0,50.36,34.729,68.999,49.156
		c8.801,6.812,18.347,13.316,30.328,13.316h39.537c24.077,0,43.666-19.589,43.666-43.666c0-17.677,0-61.369,0-77.789
		C284.13,95.711,276.748,88.329,267.642,88.329z"/>
	<path d="M274.847,242.868H174.66c-5.126,0-9.282,4.156-9.282,9.282v28.602c0,5.127,4.156,9.282,9.282,9.282h100.187
		c5.126,0,9.282-4.156,9.282-9.282V252.15C284.129,247.024,279.973,242.868,274.847,242.868z"/>
	<path d="M52.905,104.06H40.048l69.917-69.917V47c0,5.522,4.478,10,10,10c5.522,0,10-4.478,10-10V10c0-5.523-4.478-10-10-10h-37
		c-5.522,0-10,4.477-10,10s4.478,10,10,10h12.857L25.905,89.917V77.06c0-5.522-4.477-10-10-10s-10,4.478-10,10v37
		c0,5.522,4.478,10,10,10h37c5.522,0,10-4.478,10-10C62.905,108.537,58.428,104.06,52.905,104.06z"/>
</g>
<g>
</g>
<g>
</g>
<g>
</g>
<g>
</g>
<g>
</g>
<g>
</g>
<g>
</g>
<g>
</g>
<g>
</g>
<g>
</g>
<g>
</g>
<g>
</g>
<g>
</g>
<g>
</g>
<g>
</g>
</svg>
